<?xml version="1.0" standalone="no"?>
<!DOCTYPE svg PUBLIC "-//W3C//DTD SVG 20010904//EN"
 "http://www.w3.org/TR/2001/REC-SVG-20010904/DTD/svg10.dtd">
<svg version="1.0" xmlns="http://www.w3.org/2000/svg"
 width="1300.000000pt" height="1300.000000pt" viewBox="0 0 1300.000000 1300.000000"
 preserveAspectRatio="xMidYMid meet">
<metadata>
Created by potrace 1.14, written by Peter Selinger 2001-2017
</metadata>
<g transform="translate(0.000000,1300.000000) scale(0.100000,-0.100000)"
fill="#000000" stroke="none">
<path d="M5850 8586 c0 -9 -7 -19 -15 -22 -8 -4 -12 -10 -9 -15 3 -6 1 -15 -4
-22 -15 -18 -82 -139 -89 -159 -3 -10 -9 -18 -14 -18 -5 0 -9 -6 -9 -14 0 -8
-7 -22 -16 -30 -8 -9 -13 -16 -9 -16 3 0 1 -9 -4 -19 -9 -16 -4 -25 26 -55 20
-19 49 -38 65 -41 15 -4 28 -10 28 -15 0 -4 9 -10 20 -13 25 -6 26 -36 3 -43
-30 -9 -48 -21 -48 -30 0 -5 -10 -23 -23 -41 -12 -17 -22 -38 -22 -47 0 -9 -7
-19 -15 -22 -8 -4 -15 -12 -15 -19 0 -8 -6 -20 -12 -27 -7 -8 -31 -49 -53 -91
-22 -42 -43 -77 -47 -77 -5 0 -7 -3 -7 -7 1 -5 0 -10 -1 -13 -11 -28 -4 -49
25 -81 18 -21 37 -34 41 -31 4 4 4 -13 0 -38 -4 -25 -11 -46 -16 -48 -6 -2
-10 -8 -10 -13 0 -5 -8 -27 -17 -49 -22 -50 -43 -52 -105 -7 l-45 32 3 58 c1
32 -2 57 -7 57 -6 0 -8 4 -5 8 9 15 -11 33 -40 37 -16 2 -50 -6 -76 -17 -54
-23 -58 -22 -130 44 -20 18 -55 49 -78 68 -23 19 -58 50 -78 69 -20 18 -44 38
-52 45 -8 6 -20 21 -27 32 -13 24 -6 32 74 89 23 17 44 37 46 45 3 13 -68 166
-83 180 -3 3 -23 40 -44 83 -37 76 -39 78 -70 74 -32 -4 -157 -61 -251 -114
-50 -28 -64 -37 -90 -60 -7 -7 -18 -13 -23 -13 -9 0 -71 -63 -85 -87 -4 -6 2
-29 14 -50 12 -21 33 -56 45 -78 13 -22 20 -46 16 -52 -4 -7 -69 -43 -143 -81
-186 -94 -277 -154 -389 -260 -25 -24 -67 -55 -95 -69 -27 -14 -62 -32 -76
-40 -15 -7 -32 -20 -39 -28 -7 -8 -17 -15 -22 -15 -10 0 -99 -58 -108 -70 -3
-4 -10 -9 -16 -11 -39 -14 -234 -194 -234 -216 0 -8 -4 -12 -9 -8 -5 3 -13 -5
-17 -17 -4 -13 -11 -26 -17 -30 -7 -4 -1 -21 16 -45 15 -22 27 -43 27 -49 0
-5 9 -16 20 -24 11 -8 20 -18 20 -22 0 -4 6 -16 14 -25 8 -10 54 -72 103 -138
48 -66 91 -121 95 -123 5 -2 8 -10 8 -18 0 -8 4 -14 8 -14 4 0 15 -13 25 -29
l17 -29 103 0 c113 0 176 18 277 78 66 39 125 48 127 19 1 -10 13 -29 27 -43
14 -13 26 -28 26 -34 0 -6 6 -15 14 -19 8 -4 14 -15 13 -24 -1 -10 48 -68 108
-131 188 -195 180 -185 164 -205 -8 -9 -9 -14 -3 -10 7 4 15 0 18 -9 3 -9 13
-14 21 -10 8 3 17 1 20 -5 4 -5 3 -9 -2 -8 -18 3 -23 -2 -13 -13 5 -7 26 -33
45 -58 20 -25 47 -57 60 -73 14 -15 25 -30 25 -33 0 -3 28 -40 63 -84 34 -43
73 -93 87 -111 14 -18 31 -38 38 -45 6 -7 12 -17 12 -23 0 -6 4 -11 9 -11 17
0 51 -67 47 -91 -3 -13 -5 -27 -5 -31 -1 -4 -19 -17 -41 -29 -22 -13 -40 -27
-40 -31 0 -5 -4 -6 -10 -3 -5 3 -10 1 -10 -4 0 -6 -8 -11 -18 -11 -9 0 -29
-11 -44 -25 -25 -23 -27 -30 -25 -93 3 -67 22 -114 52 -125 17 -7 45 -64 39
-81 -2 -6 -24 -19 -47 -27 -33 -13 -43 -21 -45 -42 -2 -15 -9 -27 -17 -27 -16
0 -45 -54 -45 -83 0 -77 189 -209 345 -242 119 -24 335 -9 435 32 8 3 24 8 35
10 10 2 22 7 25 11 3 5 30 18 60 31 96 40 161 82 225 145 86 86 105 118 109
184 0 12 5 22 10 22 4 0 6 9 3 20 -3 11 -1 23 4 26 5 3 7 10 4 15 -4 5 -8 35
-10 67 -4 56 -6 72 -18 102 -17 44 -27 124 -25 190 3 84 -3 150 -13 150 -3 0
-6 8 -6 18 0 69 -5 85 -33 114 -45 44 -53 65 -42 98 6 16 7 31 4 35 -4 4 -2 5
3 3 6 -2 10 -1 10 2 0 3 17 22 38 43 20 22 34 44 30 50 -3 7 -3 9 1 5 11 -9
59 40 51 52 -3 6 1 10 9 10 10 0 13 6 9 18 -3 9 -3 14 1 11 8 -8 56 37 56 51
0 5 10 16 22 24 12 9 19 16 15 16 -4 0 6 14 23 30 17 17 28 35 24 42 -4 7 -3
8 4 4 7 -4 12 -3 12 3 0 5 8 12 18 16 9 3 28 21 42 40 14 19 31 35 38 35 6 0
12 4 12 10 0 5 -6 7 -14 4 -8 -3 -17 0 -21 6 -4 7 2 14 14 17 12 3 18 10 14
17 -4 7 -1 6 9 -1 8 -7 18 -11 22 -8 3 3 2 -1 -4 -7 -18 -22 -10 -34 20 -32
16 1 28 -2 25 -6 -3 -4 3 -10 13 -13 9 -2 24 -8 34 -12 11 -4 18 0 23 14 3 12
11 21 16 21 5 0 22 9 37 20 41 30 63 34 241 37 l163 4 39 42 c60 66 69 77 69
82 0 3 5 11 10 18 6 7 31 39 58 72 26 33 53 66 60 73 6 7 12 19 12 26 0 8 6
19 14 25 15 13 20 81 5 81 -5 0 -9 4 -9 10 0 11 -16 32 -85 107 -27 31 -51 59
-53 64 -2 5 -10 9 -18 9 -8 0 -14 4 -14 8 0 4 -24 26 -52 47 -29 22 -55 42
-58 45 -8 10 -152 104 -187 122 -119 64 -172 89 -248 113 -47 15 -85 32 -85
36 0 5 -6 9 -14 9 -7 0 -19 7 -26 15 -10 11 -5 23 22 62 18 26 38 51 43 55 6
4 6 8 2 8 -5 0 1 14 13 30 l21 30 -23 33 c-28 40 -87 95 -155 144 -53 38 -64
53 -40 53 12 0 107 142 107 160 0 6 5 10 11 10 5 0 7 5 4 10 -3 6 -2 10 4 10
6 0 13 11 17 25 3 14 9 25 13 25 3 0 15 16 25 35 11 19 23 35 28 35 11 0 -21
49 -47 73 -42 38 -214 147 -300 190 -105 53 -165 68 -165 43z m-750 -986 c21
-22 36 -40 32 -40 -4 0 3 -7 15 -15 14 -10 20 -21 16 -32 -5 -12 -3 -14 8 -9
8 4 6 1 -4 -7 -11 -9 -14 -18 -8 -21 7 -5 7 -15 -1 -31 -6 -13 -15 -22 -21
-18 -6 4 -7 1 -1 -8 12 -19 14 -40 4 -34 -14 9 -29 -58 -16 -67 7 -5 6 -8 -4
-8 -13 0 -13 -2 -1 -9 12 -8 12 -12 2 -25 -8 -9 -9 -16 -4 -16 5 0 9 -10 8
-22 -3 -39 -39 -34 -72 9 -37 49 -55 72 -70 88 -7 8 -13 16 -13 20 0 3 -11 17
-24 30 -45 45 -76 92 -71 107 3 8 18 21 33 30 15 9 38 27 52 40 24 22 92 76
98 77 2 1 21 -17 42 -39z m-241 -307 c7 -18 17 -33 20 -33 4 0 13 -16 21 -35
8 -19 17 -35 21 -35 4 0 11 -10 14 -22 4 -13 18 -37 31 -55 13 -17 24 -38 24
-45 0 -8 4 -18 9 -23 6 -6 0 -31 -16 -65 -14 -30 -26 -61 -26 -68 0 -13 -57
-81 -57 -68 0 5 -6 3 -13 -3 -11 -8 -19 -5 -34 12 -23 25 -123 173 -123 182 0
3 -8 15 -18 26 -11 10 -25 32 -33 47 -8 15 -22 36 -31 46 -29 32 -33 58 -12
73 11 8 29 23 42 33 12 11 26 20 32 20 5 0 13 6 17 14 4 7 26 25 47 40 37 25
40 25 55 9 9 -10 23 -33 30 -50z m-247 -360 c18 -32 40 -74 47 -93 8 -19 26
-60 41 -90 15 -30 38 -77 51 -105 13 -27 27 -51 32 -53 4 -2 7 -8 7 -13 0 -5
20 -50 44 -100 38 -79 43 -96 34 -120 -5 -16 -14 -27 -18 -24 -5 3 -10 0 -12
-7 -4 -12 -48 -22 -48 -10 0 4 -14 13 -30 20 -17 8 -28 17 -25 21 2 5 -6 13
-18 20 -12 7 -31 25 -42 41 -11 16 -30 35 -42 41 -13 7 -23 18 -23 26 0 12
-13 17 -33 14 -4 0 -6 3 -5 8 2 5 -39 53 -91 107 -126 133 -148 162 -127 170
9 3 16 11 16 18 0 10 45 47 107 87 13 9 24 18 23 20 -2 6 64 79 71 79 4 0 22
-26 41 -57z m1278 -87 c25 -35 40 -67 40 -87 0 -11 4 -19 8 -19 14 0 82 -65
82 -78 0 -6 4 -12 9 -12 8 0 7 -20 -5 -72 l-6 -28 85 0 c47 0 88 -3 90 -7 3
-5 -37 -8 -89 -9 l-94 -1 -68 -66 c-176 -171 -206 -197 -225 -197 -12 0 10 36
39 65 l26 26 -26 26 c-14 14 -26 33 -26 41 0 9 -6 23 -14 31 -20 24 -37 79
-25 86 5 4 7 9 5 13 -9 15 22 38 69 50 52 14 73 32 51 44 -13 7 -13 50 -1 88
3 9 1 29 -4 46 -7 24 -5 38 11 62 21 34 42 33 68 -2z m335 -306 c3 -5 1 -10
-4 -10 -6 0 -11 5 -11 10 0 6 2 10 4 10 3 0 8 -4 11 -10z m-1410 -276 c14 -9
22 -20 19 -25 -3 -5 4 -9 15 -9 12 0 20 -3 19 -7 -2 -5 20 -29 47 -55 27 -25
47 -49 43 -53 -3 -4 -34 21 -69 54 -34 34 -66 61 -71 61 -5 0 -7 4 -3 9 3 5
-5 17 -17 25 -30 21 -14 21 17 0z m200 -195 c11 -16 1 -19 -13 -3 -7 8 -8 14
-3 14 5 0 13 -5 16 -11z m95 -89 c0 -5 -2 -10 -4 -10 -3 0 -8 5 -11 10 -3 6
-1 10 4 10 6 0 11 -4 11 -10z m81 -72 c11 -11 19 -26 18 -32 0 -6 -3 -6 -6 2
-2 6 -10 9 -15 6 -7 -4 -8 -2 -4 4 4 7 3 12 -1 12 -5 0 -18 7 -29 15 -18 14
-18 14 0 15 10 0 27 -10 37 -22z m68 -270 c66 0 124 3 129 6 5 3 9 -1 9 -9 0
-16 -28 -18 -170 -15 -85 2 -104 5 -122 23 -20 21 -5 30 17 11 14 -14 40 -17
137 -16z"/>
<path d="M608 6519 c-9 -6 -15 -581 -9 -840 l1 -36 68 -1 c108 -1 101 -10 101
136 -1 70 0 139 0 154 l1 27 693 0 c380 0 722 0 758 1 l65 0 0 87 -1 87 -757
0 c-757 0 -758 0 -759 21 -2 51 0 188 4 191 2 2 343 5 758 7 l754 2 1 78 c0
45 -4 81 -10 85 -14 8 -1655 9 -1668 1z"/>
<path d="M2604 6522 c-47 -8 -88 -26 -114 -52 -52 -51 -56 -91 -54 -465 1
-187 2 -345 3 -352 1 -8 26 -11 83 -10 l82 2 1 140 0 140 673 3 672 2 0 -144
0 -143 84 -1 c57 -1 85 3 88 11 5 17 0 676 -5 709 -13 75 -55 129 -116 150
-27 9 -207 12 -707 12 -369 1 -679 0 -690 -2z m1322 -187 c23 -15 24 -21 24
-125 l0 -110 -672 2 -673 3 -1 101 c-1 140 -4 138 149 144 67 3 353 4 636 3
444 -2 517 -5 537 -18z"/>
<path d="M6597 6524 c-1 -1 -20 -4 -43 -6 -59 -7 -118 -44 -140 -87 -16 -32
-18 -68 -21 -331 -3 -315 1 -347 46 -397 52 -59 33 -58 791 -58 754 0 754 0
803 55 23 26 38 64 42 106 1 11 4 25 8 30 3 6 2 16 -3 24 -5 8 -5 22 1 32 6
12 6 18 0 18 -6 0 -7 9 -3 23 9 25 8 74 -1 83 -4 4 -2 15 3 25 6 10 6 20 2 23
-5 3 -6 28 -2 55 3 28 3 56 -1 63 -4 6 -4 21 1 33 5 12 4 28 0 35 -5 8 -5 21
0 31 5 9 7 19 4 22 -4 3 -8 26 -9 50 -6 82 -50 137 -126 157 -31 9 -1343 22
-1352 14z m1293 -196 c19 -21 20 -34 20 -244 0 -203 -2 -224 -19 -245 l-19
-24 -637 0 -637 0 -18 22 c-15 19 -17 47 -17 250 0 229 2 242 37 256 8 3 297
6 642 6 l627 1 21 -22z"/>
<path d="M8234 6521 c-2 -2 -4 -200 -4 -440 l0 -437 84 -1 85 -1 0 100 c0 54
3 103 6 108 3 5 2 11 -3 14 -4 2 -7 17 -6 33 l1 28 551 1 552 1 17 -26 c9 -14
22 -31 28 -38 7 -6 47 -58 89 -115 l77 -104 99 -1 c55 -1 100 1 100 3 0 6 -33
57 -40 64 -12 9 -160 209 -160 215 0 3 15 5 34 5 68 0 151 59 163 117 10 45
15 163 9 208 -1 11 2 26 7 33 5 6 6 12 1 12 -5 0 -10 22 -10 48 -2 53 -25 106
-58 134 -47 40 -74 41 -859 42 -417 1 -760 -1 -763 -3z m1382 -171 c123 0 134
-10 134 -124 0 -69 -3 -86 -20 -104 -12 -12 -28 -22 -38 -22 -243 -3 -1285 0
-1289 3 -2 3 -5 58 -5 124 l-1 118 199 5 c110 3 363 4 564 3 201 -1 406 -3
456 -3z"/>
<path d="M10107 6516 c-3 -10 -1 -853 2 -866 0 -3 38 -5 84 -5 l82 0 0 439 0
439 -82 2 c-50 0 -84 -3 -86 -9z"/>
<path d="M10439 6522 c-11 -2 -13 -20 -11 -87 l3 -85 440 0 c344 0 439 -3 440
-12 1 -7 2 -166 3 -353 l1 -340 100 0 c60 0 100 4 100 10 0 6 4 16 8 23 5 6 4
12 0 12 -5 0 -7 21 -5 48 3 57 3 53 -1 125 -1 31 2 57 6 57 6 0 6 5 0 13 -5 6
-8 30 -6 52 2 22 3 46 3 53 0 20 0 161 0 175 0 6 -1 38 -3 71 -2 37 2 60 9 63
6 2 206 5 444 6 l433 2 1 83 c1 45 -1 82 -4 83 -13 2 -1948 4 -1961 1z"/>
<path d="M4543 6215 c0 -8 4 -12 9 -9 5 3 6 10 3 15 -9 13 -12 11 -12 -6z"/>
</g>
</svg>
